# AST/ASF file generated using VICON BodyLanguage
# -----------------------------------------------
:version 1.10
:name VICON
:units
  mass 1.0
  length 0.45
  angle deg
:documentation
   .ast/.asf automatically generated from VICON data using
   VICON BodyBuilder and BodyLanguage model FoxedUp or BRILLIANT.MOD
:root
   order TX TY TZ RX RY RZ
   axis XYZ
   position 0 0 0  
   orientation 0 0 0 
:bonedata
  begin
     id 1 
     name lhipjoint
     direction 0.610259 -0.730986 0.305356 
     length 2.50941 
     axis 0 0 0  XYZ
  end
  begin
     id 2 
     name lfemur
     direction 0.34202 -0.939693 0  
     length 7.48822  
     axis 0 0 20  XYZ
    dof rx ry rz
    limits (-160.0 20.0)
           (-70.0 70.0)
           (-60.0 70.0)
  end
  begin
     id 3 
     name ltibia
     direction 0.34202 -0.939693 0   
     length 7.60141   
     axis 0 0 20   XYZ
    dof rx
    limits (-10.0 170.0)
  end
  begin
     id 4 
     name lfoot
     direction 0.0673488 -0.185039 0.980421   
     length 2.04049   
     axis -90 7.62852e-016 20   XYZ
    dof rx rz
    limits (-45.0 90.0)
           (-70.0 20.0)
  end
  begin
     id 5 
     name ltoes
     direction 1.5356e-011 -4.21729e-011 1   
     length 1.02897   
     axis -90 7.62852e-016 20   XYZ
    dof rx
    limits (-90.0 20.0)
  end
  begin
     id 6 
     name rhipjoint
     direction -0.57612 -0.754205 0.315056   
     length 2.43216  
     axis 0 0 0  XYZ 
  end
  begin
     id 7 
     name rfemur
     direction -0.34202 -0.939693 0   
     length 7.42799   
     axis 0 0 -20   XYZ
    dof rx ry rz
    limits (-160.0 20.0)
           (-70.0 70.0)
           (-70.0 60.0)
  end
  begin
     id 8 
     name rtibia
     direction -0.34202 -0.939693 0   
     length 7.69484   
     axis 0 0 -20   XYZ
    dof rx
    limits (-10.0 170.0)
 end
 begin
     id 9 
     name rfoot
     direction -0.111837 -0.30727 0.945028   
     length 2.15769  
     axis -90 -7.62852e-016 -20   XYZ
    dof rx rz
    limits (-45.0 90.0)
           (-20.0 70.0)
  end
  begin
     id 10 
     name rtoes
     direction -1.53539e-011 -4.21878e-011 1   
     length 1.07391   
     axis -90 -7.62852e-016 -20   XYZ
    dof rx
    limits (-90.0 20.0)
  end
  begin
     id 11 
     name lowerback
     direction 0.00552624 0.990109 -0.140195   
     length 2.12403   
     axis 0 0 0   XYZ
    dof rx ry rz
    limits (-20.0 45.0)
           (-30.0 30.0)
           (-30.0 30.0)
  end
  begin
     id 12 
     name upperback
     direction 0.00361898 0.999976 -0.00584723   
     length 2.13232   
     axis 0 0 0   XYZ
    dof rx ry rz
    limits (-20.0 45.0)
           (-30.0 30.0)
           (-30.0 30.0)
  end
  begin
     id 13 
     name thorax
     direction -0.000331275 0.998253 0.0590847   
     length 2.17688   
     axis 0 0 0   XYZ
    dof rx ry rz
    limits (-20.0 45.0)
           (-30.0 30.0)
           (-30.0 30.0)
  end
  begin
     id 14 
     name lowerneck
     direction -0.0561561 0.979832 0.19177   
     length 1.64159   
     axis 0 0 0   XYZ
    dof rx ry rz
    limits (-20.0 45.0)
           (-30.0 30.0)
           (-30.0 30.0)
  end
  begin
     id 15 
     name upperneck
     direction 0.0827153 0.979385 -0.184293   
     length 1.68939   
     axis 0 0 0   XYZ
    dof rx ry rz
    limits (-20.0 45.0)
           (-30.0 30.0)
           (-30.0 30.0)
  end
  begin
     id 16
     name head
     direction 0.0278583 0.995936 -0.0856488  
     length 1.70207  
     axis 0 0 0   XYZ
    dof rx ry rz
    limits (-20.0 45.0)
           (-30.0 30.0)
           (-30.0 30.0)
  end
  begin
     id 17 
     name lclavicle
     direction 0.950993 0.301131 -0.0702275  
     length 3.41652  
     axis 0 0 0   XYZ
    dof ry rz
    limits (-20.0 10.0)
           (0.0 20.0)
  end
  begin
     id 18 
     name lhumerus
     direction 1 -4.48981e-011 -3.9662e-029   
     length 5.32955   
     axis 180 -30 -90   XYZ
    dof rx ry rz
    limits (-60.0 90.0)
           (-90.0 90.0)
           (-90.0 90.0)
  end
  begin
     id 19
     name lradius
     direction 1 -4.48925e-011 -9.0549e-027   
     length 3.69232   
     axis 180 -30 -90   XYZ
    dof rx
    limits (-10.0 170.0)
  end
  begin
     id 20
     name lwrist
     direction 1 -4.49007e-011 -1.49005e-026   
     length 1.84616   
     axis 9.0955e-015 90 90   XYZ
    dof ry
    limits (-180.0 0.0)
 end
  begin
     id 21 
     name lhand
     direction 1 -4.49016e-011 -2.98023e-026   
     length 0.536598   
     axis 1.90115e-014 90 90   XYZ
    dof rx rz
    limits (-90.0 90.0)
           (-45.0 45.0)
  end
  begin
     id 22 
     name lfingers
     direction 1 -4.48924e-011 -5.9578e-026   
     length 0.432619   
     axis 3.80223e-014 90 90   XYZ
    dof rx
    limits (0.0 90.0)
  end
  begin
     id 23
     name lthumb
     direction 0.707107 -6.34947e-011 0.707107   
     length 0.621157   
     axis -90 45 -3.84942e-014   XYZ
    dof rx rz
    limits (-45.0 45.0)
           (-45.0 45.0)
  end
  begin
     id 24 
     name rclavicle
     direction -0.955495 0.276497 -0.102848   
     length 3.36357  
     axis 0 0 0   XYZ 
    dof ry rz
    limits (-10.0 20.0)
           (-20.0 0.0)
  end
  begin
     id 25 
     name rhumerus
     direction -1 -4.48961e-011 3.30983e-027  
     length 5.23431   
     axis 180 30 90   XYZ
    dof rx ry rz
    limits (-90.0 60.0)
           (-90.0 90.0)
           (-90.0 90.0)
  end
  begin
     id 26 
     name rradius
     direction -1 -4.48965e-011 -6.63263e-027   
     length 3.55301   
     axis 180 30 90   XYZ
    dof rx
    limits (-10.0 170.0)
  end
  begin
     id 27 
     name rwrist
     direction -1 -4.48942e-011 -1.48958e-026   
     length 1.77651   
     axis 9.0955e-015 -90 -90   XYZ
    dof ry
    limits (-180.0 0.0)
  end
  begin
     id 28
     name rhand
     direction -1 -4.48977e-011 -2.97966e-026   
     length 0.772522   
     axis 1.90115e-014 -90 -90   XYZ
    dof rx rz
    limits (-90.0 90.0)
           (-45.0 45.0)
  end
  begin
     id 29
     name rfingers
     direction -1 -4.49135e-011 -5.96389e-026   
     length 0.622827   
     axis 3.80223e-014 -90 -90   XYZ
    dof rx
    limits (0.0 90.0)
  end
  begin
     id 30
     name rthumb
     direction -0.707107 -6.34969e-011 0.707107   
     length 0.894259   
     axis -90 -45 3.84942e-014   XYZ
    dof rx rz
    limits (-45.0 45.0)
           (-45.0 45.0)
  end
:hierarchy
  begin
    root lhipjoint rhipjoint lowerback
    lhipjoint lfemur
    lfemur ltibia
    ltibia lfoot
    lfoot ltoes
    rhipjoint rfemur
    rfemur rtibia
    rtibia rfoot
    rfoot rtoes
    lowerback upperback
    upperback thorax
    thorax lowerneck lclavicle rclavicle
    lowerneck upperneck
    upperneck head
    lclavicle lhumerus
    lhumerus lradius
    lradius lwrist
    lwrist lhand lthumb
    lhand lfingers
    rclavicle rhumerus
    rhumerus rradius
    rradius rwrist
    rwrist rhand rthumb
    rhand rfingers
  end

#!OML:ASF F:\VICON\USERDATA\INSTALL\rory3\rory3.ASF
:FULLY-SPECIFIED
:DEGREES
37
root 15.3328 17.8147 -8.94816 -25.4266 -82.1944 26.1313
lowerback 11.8191 1.59011 -2.12668
upperback -0.104053 1.8514 0.713353
thorax -6.84233 0.98186 1.6283
lowerneck -24.9157 0.00514167 -8.14107
upperneck 30.0267 1.45616 4.88656
head 14.3974 0.273342 3.64704
rclavicle -2.04748e-014 7.95139e-015
rhumerus -37.6681 -21.2607 -72.2151
rradius 33.2225
rwrist 9.61516
rhand -13.5221 9.74287
rfingers 7.12502
rthumb 12.5899 -19.8578
lclavicle -2.04748e-014 7.95139e-015
lhumerus -30.7491 8.16524 76.6485
lradius 37.6972
lwrist -0.0597894
lhand -21.1579 23.599
lfingers 7.12502
lthumb 5.2219 53.5146
rfemur -13.2676 1.65849 15.6295
rtibia 46.8003
rfoot -23.4427 4.32712
rtoes -2.32453
lfemur -4.94478 -2.24752 -22.0004
ltibia 22.2574
lfoot -13.7487 -1.62962
ltoes -19.8287
38
root 15.3314 17.8109 -8.89672 -24.1455 -82.199 24.988
lowerback 11.7208 1.55437 -2.15127
upperback -0.14 1.80447 0.729501
thorax -6.82421 0.960727 1.6692
lowerneck -24.7696 -0.00555248 -8.15304
upperneck 29.8887 1.42558 4.91003
head 14.3075 0.267071 3.64479
rclavicle 1.79403e-014 -4.77083e-015
rhumerus -37.6797 -20.9081 -72.6104
rradius 33.3524
rwrist 9.77411
rhand -13.3104 9.80695
rfingers 7.12502
rthumb 12.7939 -19.781
lclavicle 1.79403e-014 -4.77083e-015
lhumerus -30.744 8.49741 76.3774
lradius 37.8695
lwrist 0.0399252
lhand -21.2105 23.9269
lfingers 7.12502
lthumb 5.17112 53.8438
rfemur -13.7163 1.05585 16.7432
rtibia 46.7094
rfoot -23.8014 5.13284
rtoes -3.48538
lfemur -5.43103 -2.55973 -22.026
ltibia 22.9759
lfoot -13.9649 -1.35716
ltoes -18.7866
39
root 15.3316 17.8041 -8.84873 -22.4056 -82.2239 23.4074
lowerback 11.6166 1.56101 -2.09557
upperback -0.177311 1.82515 0.747574
thorax -6.80484 0.969904 1.65494
lowerneck -24.6082 -0.0497581 -8.2556
upperneck 29.6498 1.34785 5.04804
head 14.1724 0.251543 3.69257
rclavicle 4.47266e-015 0
rhumerus -37.6439 -20.7234 -72.9415
rradius 33.3777
rwrist 9.82688
rhand -13.2181 9.86294
rfingers 7.12502
rthumb 12.8829 -19.7194
lclavicle 4.47266e-015 0
lhumerus -30.6143 8.71054 76.1394
lradius 37.9388
lwrist 0.158398
lhand -21.1694 24.2058
lfingers 7.12502
lthumb 5.21082 54.1218
rfemur -14.1614 0.493173 17.9248
rtibia 46.4988
rfoot -24.1208 6.01079
rtoes -4.92399
lfemur -5.9733 -2.39542 -21.9308
ltibia 23.6696
lfoot -14.2469 -1.48528
ltoes -18.421
40
root 15.3351 17.7899 -8.80036 -21.4522 -82.2937 22.5547
lowerback 11.6014 1.61064 -2.141
upperback -0.20383 1.88866 0.790925
thorax -6.83057 1.00397 1.71513
lowerneck -24.5954 -0.0662364 -8.42614
upperneck 29.583 1.34437 5.20231
head 14.1373 0.256118 3.78167
rclavicle 2.5842e-015 -1.59028e-015
rhumerus -37.5523 -20.688 -73.1544
rradius 33.3581
rwrist 9.8229
rhand -13.0576 10.0212
rfingers 7.12502
rthumb 13.0377 -19.5513
lclavicle 2.5842e-015 -1.59028e-015
lhumerus -30.5401 8.85525 76.0103
lradius 38.052
lwrist 0.385639
lhand -21.4696 24.0165
lfingers 7.12502
lthumb 4.92092 53.9393
rfemur -14.5365 0.115055 18.9918
rtibia 46.2024
rfoot -24.2904 6.84549
rtoes -6.83597
lfemur -6.43018 -1.97776 -21.9107
ltibia 24.3061
lfoot -14.5464 -1.70925
ltoes -18.7611
41
root 15.3381 17.7683 -8.74974 -22.6323 -82.3232 23.7535
lowerback 11.6625 1.72082 -2.37927
upperback -0.198835 1.99903 0.759694
thorax -6.87276 1.06577 1.7957
lowerneck -24.6457 -0.162936 -8.65985
upperneck 29.6593 1.27404 5.29108
head 14.1856 0.208812 3.8493
rclavicle -7.45443e-015 -1.59028e-015
rhumerus -37.4491 -20.8666 -73.2809
rradius 33.3065
rwrist 9.95359
rhand -13.1061 10.037
rfingers 7.12502
rthumb 12.9909 -19.5386
lclavicle -7.45443e-015 -1.59028e-015
lhumerus -30.4508 8.82569 75.9557
lradius 38.1581
lwrist 0.73538
lhand -21.5589 23.8316
lfingers 7.12502
lthumb 4.83472 53.7565
rfemur -14.7763 -0.0485378 19.6772
rtibia 45.8546
rfoot -24.2494 7.77373
rtoes -8.73784
lfemur -6.692 -1.73019 -22.1978
ltibia 24.8615
lfoot -14.8299 -1.92541
ltoes -17.9413
42
root 15.3382 17.7481 -8.70302 -24.8324 -82.2969 26.0591
lowerback 11.6092 1.82293 -2.76629
upperback -0.20739 2.07337 0.610883
thorax -6.8645 1.11294 1.84476
lowerneck -24.6067 -0.201531 -8.46421
upperneck 29.6456 1.18877 5.12351
head 14.1831 0.170368 3.72999
rclavicle 4.78574e-014 1.27222e-014
rhumerus -37.4621 -20.5404 -73.7457
rradius 33.4095
rwrist 9.4353
rhand -13.8313 10.0407
rfingers 7.12502
rthumb 12.2918 -19.578
lclavicle 4.78574e-014 1.27222e-014
lhumerus -30.3934 8.64062 75.7486
lradius 38.2791
lwrist 1.05228
lhand -21.2896 23.891
lfingers 7.12502
lthumb 5.09472 53.8097
rfemur -15.0702 -0.0208796 20.1328
rtibia 45.4719
rfoot -23.9214 9.02455
rtoes -7.65923
lfemur -6.98408 -1.42773 -22.6292
ltibia 25.3121
lfoot -15.1347 -2.27019
ltoes -17.2207
43
root 15.3354 17.7339 -8.65726 -26.5673 -82.1984 27.9391
lowerback 11.4498 1.83183 -3.08257
upperback -0.160081 2.03137 0.380194
thorax -6.72469 1.09669 1.79177
lowerneck -24.6943 -0.179802 -8.17464
upperneck 29.6069 1.10054 5.14982
head 14.1931 0.172831 3.67577
rclavicle -3.67752e-015 3.97569e-015
rhumerus -37.389 -19.7683 -74.653
rradius 33.6555
rwrist 8.06846
rhand -14.5043 9.93419
rfingers 7.12502
rthumb 11.6429 -19.7223
lclavicle -3.67752e-015 3.97569e-015
lhumerus -30.2379 8.47761 75.3478
lradius 38.3335
lwrist 1.32436
lhand -21.1216 24.0527
lfingers 7.12502
lthumb 5.25698 53.9675
rfemur -15.3897 0.0654453 20.5284
rtibia 45.0667
rfoot -23.1499 10.509
rtoes -1.5579
lfemur -7.29598 -1.00454 -23.024
ltibia 25.6562
lfoot -15.4222 -2.76182
ltoes -16.798
44
root 15.3325 17.7199 -8.6053 -27.886 -82.0978 29.2816
lowerback 11.4273 1.81127 -3.18568
upperback -0.129479 1.97494 0.156156
thorax -6.67164 1.06701 1.62456
lowerneck -24.7609 -0.161793 -8.23353
upperneck 29.6496 1.05219 5.45165
head 14.2252 0.188631 3.80449
rclavicle -1.07841e-014 -2.78299e-015
rhumerus -37.4195 -19.5794 -75.166
rradius 33.8665
rwrist 7.90832
rhand -14.0567 9.92324
rfingers 7.12502
rthumb 12.0745 -19.7084
lclavicle -1.07841e-014 -2.78299e-015
lhumerus -30.1562 8.51886 74.9671
lradius 38.3195
lwrist 1.3507
lhand -21.4119 23.9062
lfingers 7.12502
lthumb 4.97667 53.8278
rfemur -15.5163 0.063423 20.9104
rtibia 44.6556
rfoot -22.2206 11.4534
rtoes 5.43601
lfemur -7.4206 -0.765375 -23.3571
ltibia 25.9332
lfoot -15.6281 -3.31442
ltoes -15.4847
45
root 15.3309 17.7029 -8.54567 -29.8804 -82.0948 31.2342
lowerback 11.4638 1.85785 -3.20826
upperback -0.0964109 2.01777 -0.0448461
thorax -6.65277 1.08378 1.41764
lowerneck -24.9457 -0.192346 -8.4847
upperneck 29.8323 0.995844 5.8275
head 14.3437 0.18473 4.00425
rclavicle 7.05686e-015 -1.19271e-014
rhumerus -37.4607 -19.9032 -75.2132
rradius 33.8986
rwrist 9.06329
rhand -13.1482 10.0433
rfingers 7.12502
rthumb 12.9503 -19.5348
lclavicle 7.05686e-015 -1.19271e-014
lhumerus -30.1049 8.41586 74.7366
lradius 38.3054
lwrist 1.45192
lhand -21.3103 23.8395
lfingers 7.12502
lthumb 5.07476 53.7587
rfemur -15.507 0.171477 21.1798
rtibia 44.2728
rfoot -21.3139 11.0429
rtoes 11.2036
lfemur -7.42136 -0.496926 -23.7362
ltibia 26.1722
lfoot -15.9058 -3.80662
ltoes -14.7175
46
root 15.3283 17.6911 -8.48696 -31.6525 -82.1353 33.0074
lowerback 11.4223 1.90532 -3.19239
upperback -0.0633426 2.07354 -0.19907
thorax -6.59053 1.10626 1.23845
lowerneck -25.0065 -0.213112 -8.69459
upperneck 29.9271 0.980365 6.04845
head 14.3961 0.182533 4.13472
rclavicle 4.04527e-014 -1.98785e-015
rhumerus -37.3771 -19.7291 -75.4803
rradius 33.8849
rwrist 9.43994
rhand -13.0011 10.0436
rfingers 7.12502
rthumb 13.0921 -19.5255
lclavicle 4.04527e-014 -1.98785e-015
lhumerus -30.0314 8.23826 74.5433
lradius 38.1766
lwrist 1.54915
lhand -20.9481 23.8648
lfingers 7.12502
lthumb 5.42446 53.7754
rfemur -15.4671 0.469958 21.4117
rtibia 43.9583
rfoot -20.5675 8.61477
rtoes 15.0996
lfemur -7.46545 -0.162498 -24.0811
ltibia 26.3749
lfoot -16.3527 -4.28673
ltoes -14.8164
47
root 15.325 17.6817 -8.43293 -32.7093 -82.0956 34.0318
lowerback 11.4043 1.89292 -3.1539
upperback -0.0449008 2.05304 -0.335116
thorax -6.55317 1.09161 1.0781
lowerneck -24.7624 -0.187609 -8.72133
upperneck 29.7651 1.02442 6.00188
head 14.2686 0.195557 4.11527
rclavicle -1.44616e-014 3.18055e-015
rhumerus -37.3122 -19.3243 -75.9195
rradius 33.9002
rwrist 9.20394
rhand -13.2624 10.065
rfingers 7.12502
rthumb 12.8402 -19.5201
lclavicle -1.44616e-014 3.18055e-015
lhumerus -30.0123 8.19019 74.3142
lradius 38.0044
lwrist 1.50579
lhand -21.1062 23.8228
lfingers 7.12502
lthumb 5.27184 53.7373
rfemur -15.2521 0.889523 21.6265
rtibia 43.7067
rfoot -20.2734 4.64239
rtoes 16.1814
lfemur -7.46224 0.229552 -24.3409
ltibia 26.5425
lfoot -16.6957 -5.00209
ltoes -14.2178
